<?xml version="1.0" encoding="UTF-8" standalone="no"?>
<!-- Created with Inkscape (http://www.inkscape.org/) -->

<svg
   width="40.396828mm"
   height="16.654406mm"
   viewBox="0 0 40.396828 16.654405"
   version="1.1"
   id="svg5"
   inkscape:version="1.1.1 (3bf5ae0d25, 2021-09-20)"
   sodipodi:docname="glasses.svg"
   xmlns:inkscape="http://www.inkscape.org/namespaces/inkscape"
   xmlns:sodipodi="http://sodipodi.sourceforge.net/DTD/sodipodi-0.dtd"
   xmlns="http://www.w3.org/2000/svg"
   xmlns:svg="http://www.w3.org/2000/svg">
  <sodipodi:namedview
     id="namedview7"
     pagecolor="#505050"
     bordercolor="#eeeeee"
     borderopacity="1"
     inkscape:pageshadow="0"
     inkscape:pageopacity="0"
     inkscape:pagecheckerboard="0"
     inkscape:document-units="mm"
     showgrid="false"
     inkscape:lockguides="true"
     fit-margin-top="0"
     fit-margin-left="0"
     fit-margin-right="0"
     fit-margin-bottom="0"
     inkscape:zoom="2.3589787"
     inkscape:cx="62.950972"
     inkscape:cy="-10.385851"
     inkscape:window-width="1600"
     inkscape:window-height="847"
     inkscape:window-x="-8"
     inkscape:window-y="-8"
     inkscape:window-maximized="1"
     inkscape:current-layer="layer1" />
  <defs
     id="defs2" />
  <g
     inkscape:label="Layer 1"
     inkscape:groupmode="layer"
     id="layer1"
     transform="translate(-62.064781,-98.89859)">
    <path
       style="fill:#000000;stroke-width:0.264583"
       d="m 70.092362,114.92579 c -0.727604,-0.34397 -1.64332,-0.96789 -2.034923,-1.38647 -0.821414,-0.87802 -1.787241,-2.87763 -1.795725,-3.7178 -0.0032,-0.31652 -0.450112,-1.8048 -0.993147,-3.3073 -0.978094,-2.70623 -0.988706,-2.7219 -1.133754,-1.67347 -0.08053,0.58208 -0.238568,1.20716 -0.351195,1.38906 -0.296755,0.47928 -1.483929,0.40668 -1.679397,-0.10271 -0.202347,-0.5273 0.423239,-6.128925 0.756792,-6.776455 0.339574,-0.659221 1.452968,-0.582415 1.917734,0.132292 0.212919,0.327421 0.707191,1.488283 1.098382,2.579683 1.297492,3.61995 1.042711,3.34127 2.028367,2.21867 3.348068,-3.81324 9.786966,-2.5397 11.496605,2.2739 l 0.471758,1.32827 h 2.389337 2.389335 l 0.47176,-1.32827 c 1.709637,-4.8136 8.148535,-6.08714 11.496604,-2.2739 0.985655,1.1226 0.730874,1.40128 2.028367,-2.21867 0.391192,-1.0914 0.885463,-2.252262 1.098381,-2.579683 0.464767,-0.714707 1.578157,-0.791513 1.917737,-0.132292 0.33355,0.64753 0.95914,6.249155 0.75679,6.776455 -0.19547,0.50939 -1.38264,0.58199 -1.6794,0.10271 -0.11263,-0.1819 -0.27066,-0.80698 -0.35119,-1.38906 -0.14505,-1.04843 -0.15566,-1.03276 -1.133757,1.67347 -0.543034,1.5025 -0.9885,2.99078 -0.98992,3.3073 -0.0039,0.87661 -1.160071,3.134 -2.014472,3.93332 -1.743181,1.63081 -4.569762,2.22155 -7.080372,1.47977 -1.472729,-0.43513 -3.644895,-2.6205 -4.08518,-4.11001 l -0.332383,-1.12448 h -2.4923 -2.492301 l -0.332385,1.12448 c -0.440283,1.48951 -2.612449,3.67488 -4.085178,4.11001 -1.748411,0.51658 -3.765468,0.39818 -5.26097,-0.30882 z m 5.844441,-2.41219 c 1.232879,-0.94037 1.776008,-2.2892 1.645924,-4.08759 -0.188038,-2.5996 -1.992976,-4.25144 -4.635554,-4.24237 -3.489515,0.012 -5.665814,3.69861 -4.051426,6.86307 1.286442,2.52164 4.720289,3.23702 7.041056,1.46689 z m 18.410625,0.0998 c 1.767544,-1.25861 2.335073,-4.17802 1.201336,-6.17978 -1.594753,-2.81575 -6.000203,-3.01638 -7.892124,-0.35942 -0.820357,1.15209 -0.993921,3.49208 -0.358363,4.83142 1.203788,2.5368 4.696548,3.38298 7.049151,1.70778 z"
       id="path1036" />
  </g>
</svg>
